PathFileType	4	(X/Y/Z)	./resultDataOpenSim/trcMotMarkerGrf/sub09/qtm-15-05.trc
DataRate	CameraRate	NumFrames	NumMarkers	Units	OrigDataRate	OrigDataStartFrame	OrigNumFrames
250.000000	250.000000	10	24	m	250.000000	62	488
Frame#	Time	L.Toe.Tip			R.Toe.Tip			L.Ankle.Lat			R.Ankle.Lat			L.Ankle.Med			R.Ankle.Med			L.Heel			R.Heel			L.Knee.Lat			R.Knee.Lat			L.Knee.Med			R.Knee.Med			L.Thigh.Upper			R.Thigh.Upper			L.ASIS			R.ASIS			V.Sacral			L.Acromium			R.Acromium			C7			L.Elbow			R.Elbow			L.Wrist.Lat			R.Wrist.Lat
		X1	Y1	Z1	X2	Y2	Z2	X3	Y3	Z3	X4	Y4	Z4	X5	Y5	Z5	X6	Y6	Z6	X7	Y7	Z7	X8	Y8	Z8	X9	Y9	Z9	X10	Y10	Z10	X11	Y11	Z11	X12	Y12	Z12	X13	Y13	Z13	X14	Y14	Z14	X15	Y15	Z15	X16	Y16	Z16	X17	Y17	Z17	X18	Y18	Z18	X19	Y19	Z19	X20	Y20	Z20	X21	Y21	Z21	X22	Y22	Z22	X23	Y23	Z23	X24	Y24	Z24

62	0.244	-1.306581	0.089994846	-0.09566585	-0.59175861	0.03895402	0.063131067	-1.3294535	0.24538527	-0.13023012	-0.73812381	0.053700115	0.099168029	-1.3047829	0.22844083	-0.036581955	-0.73272387	0.091352792	0.007766389	-1.3906751	0.28986665	-0.080812737	-0.80753736	0.029592793	0.056067887	-0.95852699	0.42929599	-0.1506738	-0.69537044	0.50915283	0.14774631	-0.94543117	0.41479377	-0.026082426	-0.71366562	0.49383181	0.022814065	-0.91885779	0.83621944	-0.16447463	-0.88688432	0.86441159	0.20816558	-0.82407844	0.92295013	-0.11186238	-0.81776133	0.95011593	0.12832812	-0.9876581	0.99119267	0.012545847	-0.80650445	1.388173	-0.14492955	-0.85344223	1.3965775	0.18171642	-0.8975299	1.4450219	0.012413756	-0.92882021	1.0383942	-0.22093171	-1.0079408	1.0654587	0.2451061	-0.75122814	0.83789719	-0.20457674	-0.89592446	0.8193689	0.2821966
63	0.248	-1.2934092	0.092624865	-0.095910606	-0.59175704	0.038918343	0.063048892	-1.3166745	0.24806773	-0.12920512	-0.73780783	0.053735463	0.098987491	-1.2916766	0.23063994	-0.035757973	-0.73255747	0.091408986	0.0077422929	-1.3780298	0.29224272	-0.079470664	-0.80798295	0.030747792	0.053984071	-0.94547268	0.42993091	-0.1501136	-0.69219017	0.50895458	0.14789202	-0.93232205	0.41536792	-0.0253264	-0.71104763	0.49366448	0.023139165	-0.91281619	0.83722308	-0.164282	-0.88025367	0.86615525	0.20858482	-0.81829714	0.92440758	-0.11161996	-0.81139815	0.95161239	0.12846447	-0.98180856	0.99271279	0.012708065	-0.80095391	1.3895836	-0.14490308	-0.84685526	1.3981451	0.18188025	-0.89151397	1.4465895	0.012781199	-0.92353218	1.039893	-0.22021586	-1.0009625	1.0668581	0.24591988	-0.74696929	0.83827413	-0.20486474	-0.88794353	0.82092532	0.282159
64	0.252	-1.2798395	0.094955899	-0.096000041	-0.59177526	0.038893256	0.062978591	-1.3036636	0.25039373	-0.12816744	-0.73792589	0.053752228	0.099146698	-1.278335	0.23261896	-0.034884459	-0.73243637	0.091375037	0.007698346	-1.365298	0.29418433	-0.078150073	-0.80824199	0.031313888	0.052955598	-0.93258468	0.43077723	-0.149578	-0.68916514	0.50865501	0.14805636	-0.91926717	0.41609783	-0.024560081	-0.70860297	0.49346759	0.023653781	-0.90657764	0.83837647	-0.16404832	-0.87413714	0.8679217	0.20887955	-0.81266191	0.92590744	-0.1114202	-0.80506582	0.95317008	0.12857435	-0.97604336	0.99425979	0.012769812	-0.79545957	1.3910599	-0.14488262	-0.84028351	1.3997622	0.18202839	-0.88553547	1.4481853	0.013110366	-0.91830888	1.0414557	-0.21951232	-0.99401629	1.0683179	0.24675791	-0.74295391	0.83872694	-0.20522568	-0.87993494	0.82255859	0.28210048
65	0.256	-1.2659421	0.096996971	-0.095935947	-0.59181275	0.038884633	0.062916378	-1.2904566	0.25234585	-0.12713832	-0.73825127	0.05380028	0.09940773	-1.2649147	0.23438122	-0.033965568	-0.73236201	0.091294126	0.0076468786	-1.3524124	0.2957566	-0.077006442	-0.80835443	0.031425575	0.052752917	-0.91985423	0.43182544	-0.14906222	-0.68632392	0.50827801	0.14820472	-0.90617405	0.41698992	-0.023821216	-0.70619054	0.49325794	0.024177169	-0.90008393	0.83968877	-0.16372564	-0.86846717	0.86970702	0.20907138	-0.80709688	0.92746752	-0.11123219	-0.79876747	0.95477737	0.12867147	-0.97034754	0.9958589	0.012736186	-0.79005006	1.3926005	-0.14487201	-0.83373031	1.4014285	0.18216068	-0.87958912	1.4498226	0.013412079	-0.9131989	1.043091	-0.21889955	-0.98709874	1.0698295	0.24761039	-0.7392615	0.83925098	-0.20567376	-0.87191643	0.82426704	0.28202578
66	0.26	-1.2517854	0.098742033	-0.095703466	-0.59186468	0.038887601	0.062864835	-1.2770683	0.25392718	-0.12610513	-0.73855385	0.053908494	0.099590929	-1.2516361	0.23587105	-0.03294163	-0.73230809	0.091237587	0.0076067289	-1.3393561	0.29697599	-0.076001667	-0.80841342	0.031377625	0.052839552	-0.90715549	0.43307118	-0.14853956	-0.68369524	0.50788506	0.1483593	-0.89301567	0.41803503	-0.023122487	-0.7037161	0.49305249	0.024545428	-0.89339048	0.84114602	-0.16331923	-0.86289522	0.87150534	0.20924672	-0.80152973	0.92910946	-0.11101634	-0.79248076	0.95641632	0.12876782	-0.96470243	0.99751666	0.012643563	-0.78473892	1.3941974	-0.14487931	-0.82720649	1.4031421	0.18228226	-0.87366875	1.4515052	0.013705773	-0.90825625	1.0448041	-0.21847955	-0.98020374	1.0713873	0.24846902	-0.73577471	0.83985499	-0.20616801	-0.86390009	0.8260426	0.28194079
67	0.264	-1.2374293	0.10017853	-0.095277095	-0.59192295	0.038895574	0.062830694	-1.2635242	0.25516306	-0.1250544	-0.73876875	0.054056935	0.099682411	-1.2386088	0.23702955	-0.031735933	-0.73225857	0.091228746	0.0075852811	-1.3261645	0.29783592	-0.075010497	-0.80846785	0.031331591	0.052912143	-0.89432395	0.43450776	-0.14797783	-0.68129213	0.50753443	0.1485713	-0.87987376	0.41922194	-0.022435285	-0.70124805	0.49286612	0.024775467	-0.88660229	0.84272312	-0.16287055	-0.85702666	0.87329297	0.20950514	-0.79591782	0.93084581	-0.11074909	-0.78616597	0.95806587	0.12888031	-0.95909963	0.99920244	0.012527333	-0.77947282	1.3958436	-0.14490166	-0.8207175	1.4049007	0.18239853	-0.86776694	1.4532199	0.014005284	-0.90346197	1.0465908	-0.21824974	-0.97332695	1.0729937	0.24932934	-0.73235523	0.84055117	-0.20666474	-0.85589217	0.82787654	0.2818474
68	0.268	-1.2228903	0.10131639	-0.094645279	-0.59198119	0.038905734	0.062818918	-1.249854	0.25609071	-0.12399634	-0.73891679	0.054204258	0.099724529	-1.2255597	0.23787111	-0.030401621	-0.73221546	0.091251819	0.0075801562	-1.3128822	0.29833305	-0.073939485	-0.80852718	0.031325898	0.052897423	-0.88135915	0.43610627	-0.14736092	-0.67910523	0.50724384	0.14886036	-0.86684666	0.42055092	-0.021731994	-0.69891128	0.49270818	0.024990144	-0.87988437	0.84438792	-0.16245135	-0.85080863	0.87503636	0.20986568	-0.79024673	0.93268008	-0.1104339	-0.77978122	0.9597117	0.12902745	-0.95353139	1.0008916	0.012410352	-0.77413203	1.3975382	-0.1449205	-0.8142594	1.4066997	0.18250997	-0.86187916	1.454953	0.014308142	-0.89865719	1.0484357	-0.21796967	-0.96646537	1.0746469	0.25018721	-0.72895953	0.84134352	-0.20714954	-0.84789816	0.82976526	0.28174578
69	0.272	-1.2081033	0.10219912	-0.09384359	-0.59203817	0.038918909	0.06282924	-1.2360803	0.2567382	-0.12294334	-0.73903568	0.054322756	0.099752952	-1.211812	0.23848463	-0.029198399	-0.73218333	0.091290627	0.0075874905	-1.2995322	0.29847468	-0.072781963	-0.80858468	0.031351951	0.052823883	-0.86844745	0.43782404	-0.14669132	-0.67711019	0.50698998	0.14920012	-0.85397326	0.42203389	-0.02101997	-0.69672178	0.4925826	0.025251228	-0.87337364	0.84611646	-0.16212262	-0.84461776	0.8767068	0.21024415	-0.78450863	0.93461098	-0.1100855	-0.77330077	0.96134816	0.12922424	-0.94798492	1.002594	0.012313773	-0.76865964	1.3992824	-0.14491979	-0.80782944	1.4085339	0.18261693	-0.85600958	1.456706	0.01458108	-0.8936726	1.0503208	-0.21734646	-0.95961816	1.0763331	0.25103822	-0.72560036	0.8422253	-0.20762381	-0.83992571	0.83171038	0.28163912
70	0.276	-1.1929521	0.10287989	-0.092952743	-0.59209589	0.038936489	0.062857204	-1.22222	0.25711003	-0.12188542	-0.73915406	0.054410279	0.099785983	-1.1968451	0.23895772	-0.028370275	-0.73216084	0.091339995	0.0076042318	-1.28612	0.29826719	-0.071589166	-0.80863104	0.031398223	0.052732944	-0.8557156	0.43963629	-0.14598361	-0.67528572	0.50674011	0.14956144	-0.84125504	0.42368613	-0.020317355	-0.69459944	0.49249287	0.025529596	-0.86703175	0.84791177	-0.16187726	-0.83907345	0.87827935	0.21050346	-0.77869195	0.93663153	-0.10971523	-0.76674075	0.96296946	0.12947794	-0.94243725	1.0043392	0.012267614	-0.7631728	1.401071	-0.1449101	-0.80143364	1.410402	0.18272399	-0.8501706	1.4584887	0.014765249	-0.88857253	1.0522467	-0.21645366	-0.9527863	1.0780361	0.25188078	-0.7222716	0.84318428	-0.20808214	-0.83197881	0.83371477	0.28153108
71	0.28	-1.177368	0.10338006	-0.092029488	-0.59215534	0.03895766	0.062897672	-1.2082744	0.2571939	-0.12080009	-0.73927704	0.054481425	0.099822154	-1.1810014	0.23929583	-0.027822053	-0.73214363	0.091398395	0.0076271347	-1.2726461	0.29770543	-0.070416126	-0.80866143	0.031459101	0.052647145	-0.8431094	0.44155023	-0.1452681	-0.67358618	0.50649154	0.14991874	-0.82867252	0.42551387	-0.0196223	-0.69249558	0.49244193	0.025783406	-0.8607066	0.84978812	-0.16165704	-0.83483671	0.87971893	0.21050546	-0.7728079	0.93872296	-0.10933221	-0.7602071	0.96456201	0.12978101	-0.93685413	1.0061439	0.012307503	-0.75783683	1.4028911	-0.14491797	-0.79508186	1.4123019	0.18283637	-0.84437088	1.4602992	0.014832509	-0.88356704	1.0542356	-0.21560986	-0.94597108	1.079749	0.25271836	-0.71894794	0.84421025	-0.20851743	-0.82405121	0.83577617	0.28142105
